<svg width="90" height="28" viewBox="0 0 90 28" fill="none" xmlns="http://www.w3.org/2000/svg">
<g id="Logo_fullwhite_horizontal_lighttext_darkBg 1" clip-path="url(#clip0_21153_491)">
<g id="Layer 1">
<g id="Group">
<g id="Group_2">
<path id="Vector" d="M48.0463 17.4134C47.4719 16.8625 46.7718 16.4261 45.9793 16.1154C45.1881 15.8048 44.303 15.6515 43.3585 15.6515H39.0076V27.9987H43.3585C44.303 27.9987 45.1867 27.8413 45.9848 27.5237C46.7815 27.2075 47.4774 26.7711 48.0519 26.2202C48.6318 25.6692 49.0819 25.0037 49.3968 24.2456C49.7116 23.4931 49.869 22.6701 49.869 21.8016C49.869 20.9331 49.7116 20.117 49.3968 19.37C49.0819 18.6175 48.6263 17.9574 48.0519 17.4065L48.0463 17.412V17.4134ZM43.3585 26.2105H40.8896V17.441H43.3585C44.0586 17.441 44.6979 17.5556 45.2681 17.7848C45.8329 18.0141 46.3148 18.3247 46.7056 18.7169C47.0963 19.109 47.4001 19.5785 47.6169 20.1129C47.8337 20.6472 47.9428 21.2313 47.9428 21.8416C47.9428 22.452 47.8337 23.0471 47.6224 23.5704C47.4112 24.0937 47.1019 24.5577 46.7111 24.9498C46.3203 25.3434 45.837 25.6541 45.2737 25.8722C44.7034 26.0959 44.0627 26.205 43.364 26.205L43.3585 26.2105Z" fill="white"/>
<path id="Vector_2" d="M59.2103 22.7527C61.5701 21.7488 61.9995 18.2858 60.0181 16.6826C59.1288 15.9467 57.9786 15.647 56.7566 15.647H51.4336V27.9942H53.317V23.4127H56.2526L59.6549 27.9942H61.9774L58.3045 23.0799C58.6248 22.9984 58.9286 22.8838 59.2158 22.7471L59.2103 22.7527ZM53.3184 17.4407H56.6655C58.1678 17.4517 59.3788 17.9751 59.3939 19.5078C59.4326 20.9797 57.9676 21.7157 56.6489 21.6784H53.317V17.4407H53.3184Z" fill="white"/>
<path id="Vector_3" d="M64.8884 15.6531H63.0049V28.0003H64.8884V15.6531Z" fill="white"/>
<path id="Vector_4" d="M72.0036 25.3542L68.0214 15.6513H65.9377L71.2166 27.993H72.7576L78.0364 15.6513H76.0066L72.0022 25.3542H72.0036Z" fill="white"/>
<path id="Vector_5" d="M80.8641 26.2269V22.6603H87.2614V20.8873H80.8641V17.4243H87.9808V15.6513H78.9807V27.9985H87.9808V26.2255H80.8641V26.2269Z" fill="white"/>
<path id="Vector_6" d="M44.2477 0.219849H47.541L52.788 12.5615H49.1261L48.2314 10.4351H43.4786L42.599 12.5615H39.0076L44.2477 0.219849ZM47.2427 7.76734L45.8702 4.24352L44.4811 7.76734H47.2427Z" fill="white"/>
<path id="Vector_7" d="M52.4624 6.42499V6.39185C52.4624 2.80866 55.2033 -0.00128174 58.908 -0.00128174C61.4073 -0.00128174 63.0118 1.05365 64.0943 2.56426L61.5412 4.55124C60.8411 3.67443 60.0389 3.11106 58.8707 3.11106C57.1585 3.11106 55.9517 4.56781 55.9517 6.35872V6.39047C55.9517 8.23661 57.1585 9.6768 58.8707 9.6768C60.1466 9.6768 60.895 9.08167 61.6337 8.18276L64.1868 10.0068C63.0339 11.603 61.4777 12.7836 58.7699 12.7836C55.2751 12.7836 52.4638 10.0993 52.4638 6.42914V6.42361L52.4624 6.42499Z" fill="white"/>
<path id="Vector_8" d="M65.3376 0.220032H68.7509V5.22822L72.9941 0.220032H77.0413L72.3755 5.52923L77.1987 12.5631H73.0963L69.9978 7.98845L68.7495 9.38445V12.5617H65.3362V0.220032H65.3376Z" fill="white"/>
<path id="Vector_9" d="M76.4822 6.42775V6.39461C76.4822 2.86389 79.3156 -0.00128174 83.0866 -0.00128174C86.8576 -0.00128174 89.6592 2.82523 89.6592 6.35595V6.38909C89.6592 9.91981 86.8258 12.785 83.0548 12.785C79.2838 12.785 76.4822 9.95848 76.4822 6.42775ZM86.2017 6.42775V6.39461C86.2017 4.6189 84.9244 3.07516 83.0562 3.07516C81.188 3.07516 79.9632 4.58576 79.9632 6.36286V6.39461C79.9632 8.17171 81.2404 9.71407 83.0935 9.71407C84.9465 9.71407 86.2017 8.20347 86.2017 6.42637V6.42775Z" fill="white"/>
</g>
<g id="Group_3">
<path id="Vector_10" d="M35.841 9.88129V18.2904C35.841 18.9352 35.5496 19.4945 34.9628 19.8797C27.6017 24.7029 22.0274 26.7299 20.0777 27.2946C17.3879 28.072 15.9629 27.9906 15.7309 27.974C10.8208 27.6191 2.54834 20.8587 2.54834 20.8587C2.54834 20.8587 9.29634 22.5074 24.8912 15.0842C27.8143 13.6923 31.0772 12.1914 34.8716 10.4322C34.8716 10.4322 35.7001 10.0746 35.8396 9.88267L35.841 9.88129Z" fill="white"/>
<path id="Vector_11" d="M35.4516 9.59503C35.4958 9.55913 35.5496 9.5108 35.5745 9.47904C35.609 9.43624 35.6394 9.39343 35.6573 9.33958C35.707 9.19874 35.6905 9.02199 35.6118 8.8922C35.4668 8.65608 35.2265 8.49729 34.9614 8.3233C27.6017 3.50015 22.026 1.47312 20.0777 0.909753C17.3879 0.130978 15.9629 0.212445 15.7309 0.229015C10.8221 0.583882 2.54834 7.34569 2.54834 7.34569C2.54834 7.34569 9.29634 5.69701 24.8912 13.1202C25.3924 13.3591 25.9047 13.6007 26.428 13.8479L34.9462 9.89742C34.9462 9.89742 35.3756 9.65578 35.4516 9.59503Z" fill="white"/>
<path id="Vector_12" d="M10.4486 14.0939C10.4568 12.3002 10.6819 10.5052 11.0948 8.73082L11.15 8.50989C8.0791 7.78773 5.81458 7.63446 4.45586 7.63446C3.33327 7.63446 2.73814 7.73664 2.53516 7.77945C2.16925 7.86091 1.91104 8.15088 1.72739 8.39528C0.628267 9.85342 0 11.9302 0 14.0939C0 16.2576 0.628267 18.3343 1.72601 19.7911C1.90966 20.0355 2.16787 20.3268 2.53378 20.4069C2.73814 20.4511 3.33327 20.5519 4.45448 20.5519C5.81458 20.5519 8.07772 20.4 11.1486 19.6765L11.0934 19.4555C10.6805 17.6812 10.4569 15.8862 10.4472 14.0925L10.4486 14.0939Z" fill="white"/>
</g>
</g>
</g>
</g>
<defs>
<clipPath id="clip0_21153_491">
<rect width="89.6572" height="28" fill="white"/>
</clipPath>
</defs>
</svg>
