<svg width="32" height="32" viewBox="0 0 32 32" fill="none" xmlns="http://www.w3.org/2000/svg">
<path d="M16 32C24.8366 32 32 24.8366 32 16C32 7.16344 24.8366 0 16 0C7.16344 0 0 7.16344 0 16C0 24.8366 7.16344 32 16 32Z" fill="white" style="fill:white;fill-opacity:1;"/>
<path d="M16.8654 25.0051V17.0753H19.5321L19.9297 13.9876H16.8654V12.0227C16.8654 11.1338 17.1227 10.5256 18.3859 10.5256H20.0233V7.74196C19.228 7.64839 18.4327 7.625 17.6373 7.625C15.2748 7.625 13.6607 9.07529 13.6607 11.6952V13.9642H11.0175V17.0753H13.6841V25.0051H16.8654Z" fill="#121212" style="fill:#121212;fill:color(display-p3 0.0706 0.0706 0.0706);fill-opacity:1;"/>
</svg>
