<svg width="32" height="32" viewBox="0 0 32 32" fill="none" xmlns="http://www.w3.org/2000/svg">
<g clip-path="url(#clip0_1554_83422)">
<path d="M16.0637 31.9375C24.9003 31.9375 32.0637 24.7741 32.0637 15.9375C32.0637 7.10094 24.9003 -0.0625 16.0637 -0.0625C7.22716 -0.0625 0.0637207 7.10094 0.0637207 15.9375C0.0637207 24.7741 7.22716 31.9375 16.0637 31.9375Z" fill="white" style="fill:white;fill-opacity:1;"/>
<path d="M16 8.64062C17.9997 8.64062 18.2492 8.64798 19.0337 8.68478C19.8176 8.72158 20.3512 8.8445 20.8208 9.02703C21.3065 9.21397 21.7157 9.46715 22.1249 9.87563C22.4992 10.2436 22.7888 10.6886 22.9736 11.1798C23.1553 11.6487 23.279 12.183 23.3158 12.9668C23.3504 13.7514 23.36 14.0009 23.36 16.0006C23.36 18.0003 23.3526 18.2498 23.3158 19.0344C23.279 19.8183 23.1553 20.3519 22.9736 20.8214C22.7893 21.3129 22.4997 21.7581 22.1249 22.1256C21.7569 22.4997 21.3119 22.7893 20.8208 22.9742C20.3519 23.156 19.8176 23.2797 19.0337 23.3165C18.2492 23.3511 17.9997 23.3606 16 23.3606C14.0002 23.3606 13.7507 23.3533 12.9662 23.3165C12.1823 23.2797 11.6487 23.156 11.1792 22.9742C10.6877 22.7898 10.2426 22.5002 9.87496 22.1256C9.50064 21.7578 9.21104 21.3127 9.02635 20.8214C8.84383 20.3526 8.72091 19.8183 8.68411 19.0344C8.64952 18.2498 8.63995 18.0003 8.63995 16.0006C8.63995 14.0009 8.64731 13.7514 8.68411 12.9668C8.72091 12.1823 8.84383 11.6494 9.02635 11.1798C9.21053 10.6883 9.50019 10.2431 9.87496 9.87563C10.2427 9.50118 10.6878 9.21156 11.1792 9.02703C11.6487 8.8445 12.1816 8.72158 12.9662 8.68478C13.7507 8.65019 14.0002 8.64062 16 8.64062ZM16 12.3206C15.024 12.3206 14.0879 12.7083 13.3978 13.3985C12.7077 14.0886 12.32 15.0246 12.32 16.0006C12.32 16.9766 12.7077 17.9126 13.3978 18.6028C14.0879 19.2929 15.024 19.6806 16 19.6806C16.976 19.6806 17.912 19.2929 18.6021 18.6028C19.2922 17.9126 19.68 16.9766 19.68 16.0006C19.68 15.0246 19.2922 14.0886 18.6021 13.3985C17.912 12.7083 16.976 12.3206 16 12.3206ZM20.784 12.1366C20.784 11.8926 20.687 11.6586 20.5145 11.4861C20.342 11.3136 20.108 11.2166 19.864 11.2166C19.62 11.2166 19.3859 11.3136 19.2134 11.4861C19.0409 11.6586 18.944 11.8926 18.944 12.1366C18.944 12.3806 19.0409 12.6146 19.2134 12.7872C19.3859 12.9597 19.62 13.0566 19.864 13.0566C20.108 13.0566 20.342 12.9597 20.5145 12.7872C20.687 12.6146 20.784 12.3806 20.784 12.1366ZM16 13.7926C16.5856 13.7926 17.1472 14.0253 17.5612 14.4393C17.9753 14.8534 18.208 15.415 18.208 16.0006C18.208 16.5862 17.9753 17.1478 17.5612 17.5619C17.1472 17.976 16.5856 18.2086 16 18.2086C15.4144 18.2086 14.8527 17.976 14.4387 17.5619C14.0246 17.1478 13.792 16.5862 13.792 16.0006C13.792 15.415 14.0246 14.8534 14.4387 14.4393C14.8527 14.0253 15.4144 13.7926 16 13.7926Z" fill="#121212" style="fill:#121212;fill:color(display-p3 0.0706 0.0706 0.0706);fill-opacity:1;"/>
</g>
<defs>
<clipPath id="clip0_1554_83422">
<rect width="32" height="32" fill="white" style="fill:white;fill-opacity:1;"/>
</clipPath>
</defs>
</svg>
