<svg width="32" height="32" viewBox="0 0 32 32" fill="none" xmlns="http://www.w3.org/2000/svg">
<path d="M32 16C32 24.8421 24.8421 32 16 32C7.1579 32 0 24.8421 0 16C0 7.1579 7.1579 0 16 0C24.8421 0 32 7.1579 32 16Z" fill="white" style="fill:white;fill-opacity:1;"/>
<path d="M24.3041 17.2861V23.2744H20.8421V17.6838C20.8421 16.2803 20.3509 15.3212 19.0878 15.3212C18.1287 15.3212 17.5673 15.9762 17.31 16.5844C17.2164 16.8183 17.193 17.1224 17.193 17.4265V23.2511H13.731C13.731 23.2511 13.7778 13.7774 13.731 12.8183H17.193V14.292L17.1696 14.3154H17.193V14.292C17.6609 13.5902 18.4796 12.561 20.3275 12.561C22.5965 12.5844 24.3041 14.0581 24.3041 17.2861ZM10.0819 7.78906C8.88894 7.78906 8.117 8.56099 8.117 9.59023C8.117 10.5961 8.86555 11.3914 10.0351 11.3914H10.0585C11.2749 11.3914 12.0234 10.5961 12.0234 9.59023C12 8.56099 11.2749 7.78906 10.0819 7.78906ZM8.32753 23.2744H11.7895V12.8183H8.32753V23.2744Z" fill="#121212" style="fill:#121212;fill:color(display-p3 0.0706 0.0706 0.0706);fill-opacity:1;"/>
</svg>
