<svg width="32" height="32" viewBox="0 0 32 32" fill="none" xmlns="http://www.w3.org/2000/svg">
<path d="M16 32C24.8366 32 32 24.8366 32 16C32 7.16344 24.8366 0 16 0C7.16344 0 0 7.16344 0 16C0 24.8366 7.16344 32 16 32Z" fill="white" style="fill:white;fill-opacity:1;"/>
<path d="M8.95905 21.8025C10.3626 22.6914 12 23.206 13.7778 23.206C18.7602 23.206 22.807 19.1592 22.807 14.1767C22.807 14.0598 22.807 13.9194 22.807 13.8025C22.9941 13.6621 24.0935 12.7732 24.3742 12.1884C24.3742 12.1884 23.462 12.5627 22.5731 12.6563C22.6432 12.6095 23.7894 11.8142 23.9532 10.9019C23.9532 10.9019 23.3216 11.2528 22.4093 11.5335C22.269 11.5802 22.1052 11.627 21.9415 11.6738C21.3567 11.0656 20.538 10.668 19.6257 10.668C17.8713 10.668 16.4678 12.0949 16.4678 13.8259C16.4678 14.0832 16.4912 14.3171 16.5614 14.551C16.3275 14.551 12.6082 14.3405 10.0585 11.2762C10.0585 11.2762 8.53799 13.3346 10.9707 15.4633C10.9707 15.4633 10.2456 15.4399 9.61401 15.0656C9.61401 15.0656 9.3801 17.5686 12.1169 18.2001C12.1169 18.2001 11.5789 18.4107 10.7134 18.2469C10.7134 18.2469 11.2047 20.2586 13.614 20.4457C13.5906 20.4691 11.6725 22.2001 8.95905 21.8025Z" fill="#121212" style="fill:#121212;fill:color(display-p3 0.0706 0.0706 0.0706);fill-opacity:1;"/>
</svg>
