<svg width="32" height="32" viewBox="0 0 32 32" fill="none" xmlns="http://www.w3.org/2000/svg">
<path d="M16 32C24.8366 32 32 24.8366 32 16C32 7.16344 24.8366 0 16 0C7.16345 0 0 7.16344 0 16C0 24.8366 7.16345 32 16 32Z" fill="white" style="fill:white;fill-opacity:1;"/>
<path d="M24.2807 11.9288C24.1404 10.7359 23.1579 9.82358 21.9416 9.73001C19.9533 9.58966 17.9884 9.51949 16 9.49609C14.0117 9.49609 12.0468 9.56627 10.0585 9.73001C8.86554 9.82358 7.85969 10.7359 7.71934 11.9288C7.39185 14.6423 7.39185 17.3791 7.71934 20.0926C7.85969 21.2856 8.84215 22.1978 10.0585 22.2914C12.0468 22.4318 14.0117 22.5019 16 22.5019C17.9884 22.5019 19.9533 22.4318 21.9416 22.2914C23.1345 22.1978 24.1404 21.2856 24.2807 20.0926C24.6082 17.3791 24.6082 14.6423 24.2807 11.9288ZM18.5497 16.2797L14.4562 18.5253C14.2457 18.6423 13.9883 18.4785 13.9883 18.2446V13.7534C13.9883 13.5195 14.2457 13.3557 14.4562 13.4727L18.5497 15.7183C18.7837 15.8587 18.7837 16.1628 18.5497 16.2797Z" fill="#121212" style="fill:#121212;fill:color(display-p3 0.0706 0.0706 0.0706);fill-opacity:1;"/>
</svg>
